<svg xmlns="http://www.w3.org/2000/svg" width="933.333" height="933.333" preserveAspectRatio="xMidYMid meet" version="1.0" viewBox="0 0 700 700"><metadata>Created by potrace 1.11, written by Peter Selinger 2001-2013</metadata><g fill="#000" stroke="none"><path d="M3378 6843 c-806 -1037 -1560 -2198 -1954 -3008 -227 -468 -340 -785 -394 -1102 -20 -112 -22 -152 -17 -323 6 -218 22 -332 71 -530 45 -181 91 -303 186 -495 177 -357 416 -645 736 -886 812 -610 1919 -664 2788 -135 329 201 608 475 820 806 63 99 186 350 231 473 88 241 134 490 142 767 5 171 3 211 -17 325 -110 649 -612 1635 -1484 2915 -313 460 -961 1340 -986 1340 -4 0 -59 -66 -122 -147z m-1376 -4171 c61 -42 98 -114 98 -191 1 -446 240 -892 614 -1143 230 -154 426 -217 763 -246 88 -7 108 -13 143 -37 128 -89 127 -272 -1 -361 -39 -27 -50 -29 -150 -32 -321 -10 -717 116 -1014 323 -462 322 -741 810 -786 1376 -14 170 -7 209 49 271 52 58 103 79 177 76 48 -3 69 -10 107 -36z" transform="translate(0.000000,700.000000) scale(0.100000,-0.100000)"/></g></svg>